REM DIRINDEX 1\3,1\4,1\5,1\6,1\2\7,1\2\8,1\2\9,1\10
REM DIRNAME cjc056,folder01,folder02,folder03,folder04,folder05,folder06,folder07,folder08,folder09
TITLE ""
FILE "1-25 Level 2-213-225.mp3" MP3
  TRACK 01 AUDIO
    TITLE "0:"
    INDEX 01 00:00:00
  TRACK 02 AUDIO
    TITLE "7:cjc056_0735"
    INDEX 01 00:00:05
  TRACK 03 AUDIO
    TITLE "0:"
    INDEX 01 00:01:17
  TRACK 04 AUDIO
    TITLE "8:cjc056_0736"
    INDEX 01 00:01:28
  TRACK 05 AUDIO
    TITLE "0:"
    INDEX 01 00:02:51
  TRACK 06 AUDIO
    TITLE "9:cjc056_0737"
    INDEX 01 00:02:63
  TRACK 07 AUDIO
    TITLE "0:"
    INDEX 01 00:04:33
  TRACK 08 AUDIO
    TITLE "7:cjc056_0738"
    INDEX 01 00:05:09
  TRACK 09 AUDIO
    TITLE "0:"
    INDEX 01 00:06:14
  TRACK 10 AUDIO
    TITLE "8:cjc056_0739"
    INDEX 01 00:06:30
  TRACK 11 AUDIO
    TITLE "0:"
    INDEX 01 00:07:27
  TRACK 12 AUDIO
    TITLE "9:cjc056_0740"
    INDEX 01 00:07:41
  TRACK 13 AUDIO
    TITLE "0:"
    INDEX 01 00:09:36
  TRACK 14 AUDIO
    TITLE "7:cjc056_0741"
    INDEX 01 00:10:12
  TRACK 15 AUDIO
    TITLE "0:"
    INDEX 01 00:11:15
  TRACK 16 AUDIO
    TITLE "8:cjc056_0742"
    INDEX 01 00:11:29
  TRACK 17 AUDIO
    TITLE "0:"
    INDEX 01 00:12:24
  TRACK 18 AUDIO
    TITLE "9:cjc056_0743"
    INDEX 01 00:12:38
  TRACK 19 AUDIO
    TITLE "0:"
    INDEX 01 00:14:06
  TRACK 20 AUDIO
    TITLE "7:cjc056_0744"
    INDEX 01 00:14:56
  TRACK 21 AUDIO
    TITLE "0:"
    INDEX 01 00:15:62
  TRACK 22 AUDIO
    TITLE "8:cjc056_0745"
    INDEX 01 00:16:00
  TRACK 23 AUDIO
    TITLE "0:"
    INDEX 01 00:17:23
  TRACK 24 AUDIO
    TITLE "9:cjc056_0746"
    INDEX 01 00:17:35
  TRACK 25 AUDIO
    TITLE "0:"
    INDEX 01 00:19:07
  TRACK 26 AUDIO
    TITLE "7:cjc056_0747"
    INDEX 01 00:19:58
  TRACK 27 AUDIO
    TITLE "0:"
    INDEX 01 00:21:00
  TRACK 28 AUDIO
    TITLE "8:cjc056_0748"
    INDEX 01 00:21:15
  TRACK 29 AUDIO
    TITLE "0:"
    INDEX 01 00:22:27
  TRACK 30 AUDIO
    TITLE "9:cjc056_0749"
    INDEX 01 00:22:40
  TRACK 31 AUDIO
    TITLE "0:"
    INDEX 01 00:24:41
  TRACK 32 AUDIO
    TITLE "7:cjc056_0750"
    INDEX 01 00:25:17
  TRACK 33 AUDIO
    TITLE "0:"
    INDEX 01 00:26:18
  TRACK 34 AUDIO
    TITLE "8:cjc056_0751"
    INDEX 01 00:26:32
  TRACK 35 AUDIO
    TITLE "0:"
    INDEX 01 00:27:51
  TRACK 36 AUDIO
    TITLE "9:cjc056_0752"
    INDEX 01 00:27:65
  TRACK 37 AUDIO
    TITLE "0:"
    INDEX 01 00:29:50
  TRACK 38 AUDIO
    TITLE "7:cjc056_0753"
    INDEX 01 00:30:24
  TRACK 39 AUDIO
    TITLE "0:"
    INDEX 01 00:31:33
  TRACK 40 AUDIO
    TITLE "8:cjc056_0754"
    INDEX 01 00:31:47
  TRACK 41 AUDIO
    TITLE "0:"
    INDEX 01 00:32:62
  TRACK 42 AUDIO
    TITLE "9:cjc056_0755"
    INDEX 01 00:32:74
  TRACK 43 AUDIO
    TITLE "0:"
    INDEX 01 00:34:45
  TRACK 44 AUDIO
    TITLE "7:cjc056_0756"
    INDEX 01 00:35:23
  TRACK 45 AUDIO
    TITLE "0:"
    INDEX 01 00:36:27
  TRACK 46 AUDIO
    TITLE "8:cjc056_0757"
    INDEX 01 00:36:40
  TRACK 47 AUDIO
    TITLE "0:"
    INDEX 01 00:37:32
  TRACK 48 AUDIO
    TITLE "9:cjc056_0758"
    INDEX 01 00:37:46
  TRACK 49 AUDIO
    TITLE "0:"
    INDEX 01 00:38:73
  TRACK 50 AUDIO
    TITLE "7:cjc056_0759"
    INDEX 01 00:39:51
  TRACK 51 AUDIO
    TITLE "0:"
    INDEX 01 00:40:50
  TRACK 52 AUDIO
    TITLE "8:cjc056_0760"
    INDEX 01 00:40:64
  TRACK 53 AUDIO
    TITLE "0:"
    INDEX 01 00:42:08
  TRACK 54 AUDIO
    TITLE "9:cjc056_0761"
    INDEX 01 00:42:19
  TRACK 55 AUDIO
    TITLE "0:"
    INDEX 01 00:43:50
  TRACK 56 AUDIO
    TITLE "7:cjc056_0762"
    INDEX 01 00:44:28
  TRACK 57 AUDIO
    TITLE "0:"
    INDEX 01 00:45:33
  TRACK 58 AUDIO
    TITLE "8:cjc056_0763"
    INDEX 01 00:45:49
  TRACK 59 AUDIO
    TITLE "0:"
    INDEX 01 00:46:54
  TRACK 60 AUDIO
    TITLE "9:cjc056_0764"
    INDEX 01 00:46:64
  TRACK 61 AUDIO
    TITLE "0:"
    INDEX 01 00:48:48
  TRACK 62 AUDIO
    TITLE "7:cjc056_0765"
    INDEX 01 00:49:25
  TRACK 63 AUDIO
    TITLE "0:"
    INDEX 01 00:50:25
  TRACK 64 AUDIO
    TITLE "8:cjc056_0766"
    INDEX 01 00:50:37
  TRACK 65 AUDIO
    TITLE "0:"
    INDEX 01 00:52:24
  TRACK 66 AUDIO
    TITLE "9:cjc056_0767"
    INDEX 01 00:52:34
  TRACK 67 AUDIO
    TITLE "0:"
    INDEX 01 00:54:17
  TRACK 68 AUDIO
    TITLE "7:cjc056_0768"
    INDEX 01 00:54:68
  TRACK 69 AUDIO
    TITLE "0:"
    INDEX 01 00:56:16
  TRACK 70 AUDIO
    TITLE "8:cjc056_0769"
    INDEX 01 00:56:25
  TRACK 71 AUDIO
    TITLE "0:"
    INDEX 01 00:57:56
  TRACK 72 AUDIO
    TITLE "9:cjc056_0770"
    INDEX 01 00:57:64
  TRACK 73 AUDIO
    TITLE "0:"
    INDEX 01 01:00:04
  TRACK 74 AUDIO
    TITLE "7:cjc056_0771"
    INDEX 01 01:00:55
  TRACK 75 AUDIO
    TITLE "0:"
    INDEX 01 01:01:70
  TRACK 76 AUDIO
    TITLE "8:cjc056_0772"
    INDEX 01 01:02:10
  TRACK 77 AUDIO
    TITLE "0:"
    INDEX 01 01:04:00
  TRACK 78 AUDIO
    TITLE "9:cjc056_0773"
    INDEX 01 01:04:13
  TRACK 79 AUDIO
    TITLE "0:"
    INDEX 01 01:06:26
